<?xml version="1.0" standalone="no"?>
<!DOCTYPE svg PUBLIC "-//W3C//DTD SVG 20010904//EN"
 "http://www.w3.org/TR/2001/REC-SVG-20010904/DTD/svg10.dtd">
<svg version="1.0" xmlns="http://www.w3.org/2000/svg"
 width="138.000000pt" height="138.000000pt" viewBox="0 0 138.000000 138.000000"
 preserveAspectRatio="xMidYMid meet">
<metadata>
Created by potrace 1.14, written by Peter Selinger 2001-2017
</metadata>
<g transform="translate(0.000000,138.000000) scale(0.100000,-0.100000)"
fill="#000000" stroke="none">
<path d="M399 1012 c-50 -45 -42 -133 14 -164 12 -6 15 -14 10 -21 -7 -10 -10
-112 -4 -164 2 -22 42 -14 63 12 13 16 29 25 48 25 19 0 35 -9 48 -25 19 -24
23 -25 155 -25 133 0 135 0 151 25 11 17 26 25 46 25 19 0 35 -9 48 -25 36
-45 52 -33 52 37 0 52 -5 70 -32 115 l-32 52 -70 3 -71 3 -9 46 -9 47 -108 1
c-64 1 -110 -3 -114 -9 -3 -5 -23 8 -44 30 -48 51 -94 55 -142 12z m101 -22
c0 -21 -24 -60 -37 -60 -8 0 -13 3 -11 8 24 48 32 62 40 62 4 0 8 -4 8 -10z"/>
<path d="M502 668 c-32 -32 2 -79 43 -60 27 13 30 23 15 53 -12 21 -40 25 -58
7z"/>
<path d="M898 655 c-9 -21 -9 -29 5 -42 13 -14 21 -14 42 -5 27 12 33 40 13
60 -20 20 -48 14 -60 -13z"/>
<path d="M458 436 c-26 -13 -36 -59 -17 -82 19 -23 76 -18 94 10 32 48 -22 99
-77 72z"/>
<path d="M580 433 c-22 -15 -26 -44 -10 -74 8 -14 21 -19 50 -19 38 0 47 9 56
56 6 35 -61 61 -96 37z m58 -37 c2 -10 -1 -23 -7 -29 -15 -15 -46 16 -37 38 8
21 40 15 44 -9z"/>
<path d="M834 425 c-40 -40 -12 -89 48 -83 55 5 74 78 24 95 -39 13 -48 12
-72 -12z"/>
<path d="M993 442 c-50 -8 -59 -79 -12 -96 54 -19 102 19 83 67 -7 19 -43 34
-71 29z"/>
<path d="M325 393 c0 -37 4 -49 18 -51 10 -2 17 0 16 5 -4 22 3 32 20 28 11
-2 22 3 25 11 3 8 1 14 -4 14 -6 0 -10 4 -10 10 0 6 5 9 11 8 6 -2 14 3 16 10
3 8 -9 12 -44 12 l-49 0 1 -47z"/>
<path d="M693 393 c2 -46 3 -48 34 -51 46 -4 73 13 73 46 0 39 -17 52 -66 52
l-42 0 1 -47z m75 0 c-4 -22 -22 -20 -26 1 -2 10 3 16 13 16 10 0 15 -7 13
-17z"/>
</g>
</svg>
